<svg xmlns="http://www.w3.org/2000/svg" width="521" height="606" viewBox="0 0 521 606" version="1.1"><g stroke="none" fill-rule="evenodd" transform="translate(-79, -87)" fill="#404040"><path d="M593.2 296.2C594.3 242.9 591.7 194.9 586 151.9 514.9 113.9 426.6 92.9 342.6 92.3 342.1 92.3 338.3 92.3 337.8 92.3 252.4 92.9 162.4 114.7 90.8 153.9 85.2 196.4 82.7 243.7 83.8 296.2 89.2 556.2 226.6 640.9 338.5 687.4 450.4 640.9 587.8 556.2 593.2 296.2L593.2 296.2ZM575.8 301.5C576.8 249.6 574.2 203.1 568.3 161.7 501.8 128 420.1 109.3 342.4 108.8 341.9 108.8 338.3 108.8 337.8 108.8 258.8 109.3 175.6 128.6 108.5 163.5 102.7 204.5 100.2 250.3 101.2 301.5 106.3 543.7 234.2 622.6 338.5 665.9 442.8 622.6 570.7 543.7 575.8 301.5L575.8 301.5ZM472.1 555C432 598.3 383.5 623.4 339.6 641.6L339.6 641.6C314.4 631.2 287.7 618.4 261.9 601.3L472.1 555 472.1 555 472.1 555ZM336.7 619.3L319.2 623.1 326.8 608.6C327.3 607.7 327.6 607 327.7 606.3 327.9 605.6 327.9 605 327.8 604.5 327.6 603.7 327.2 603.1 326.6 602.7 326 602.3 325.3 602.2 324.5 602.4 323.5 602.6 322.8 603.1 322.4 603.8 322 604.6 321.9 605.5 322.2 606.7L322.3 607 316.7 608.2 316.7 608.1C316.1 605.5 316.4 603.2 317.6 601.4 318.8 599.6 320.7 598.4 323.4 597.8 326 597.2 328.2 597.4 330 598.4 331.8 599.4 333 601 333.5 603.2 333.7 604.3 333.7 605.4 333.4 606.6 333.2 607.7 332.6 609 331.8 610.4L328.6 615.9 335.7 614.4 336.7 619.3 336.7 619.3ZM354.4 603.7C355.2 607.4 355 610.4 353.9 612.9 352.8 615.3 350.9 616.8 348.2 617.4 345.5 618 343.2 617.4 341.1 615.6 339.1 613.8 337.7 611.1 336.9 607.4 336.1 603.6 336.2 600.6 337.3 598.1 338.4 595.6 340.3 594.1 343 593.5 345.7 592.9 348.1 593.5 350.1 595.3 352.1 597.1 353.5 599.9 354.4 603.7L354.4 603.7ZM342.7 606.1C343.2 608.6 343.9 610.4 344.6 611.4 345.3 612.5 346.2 612.9 347.2 612.7 348.2 612.5 348.8 611.7 349 610.5 349.2 609.2 349.1 607.3 348.5 604.8 348 602.3 347.3 600.5 346.6 599.5 345.9 598.4 345 598 344 598.2 343 598.4 342.4 599.1 342.2 600.4 341.9 601.6 342.1 603.5 342.7 606.1L342.7 606.1ZM365.2 613L361.4 595.4 356.4 596.5 358 590.7 365.9 588.9 371 611.8 365.2 613 365.2 613ZM376.6 602.5L382.4 601.2 382.5 601.6C382.7 602.6 383.1 603.3 383.7 603.7 384.3 604.2 385.1 604.3 386 604.1 387 603.9 387.6 603.4 388.1 602.8 388.5 602.2 388.6 601.4 388.3 600.5 388.1 599.4 387.7 598.7 387 598.3 386.3 598 385.4 597.9 384.3 598.2 384.1 598.2 383.9 598.2 383.8 598.3 383.7 598.3 383.6 598.3 383.6 598.3L382.7 594.6 383.1 594.6C384.1 594.3 384.9 593.9 385.4 593.3 385.8 592.7 386 592 385.8 591.1 385.6 590.4 385.2 589.9 384.7 589.6 384.1 589.2 383.4 589.2 382.7 589.3 381.9 589.5 381.3 589.8 381 590.4 380.6 590.9 380.5 591.6 380.7 592.3L375.1 593.6C374.7 591.4 375.1 589.6 376.3 588.1 377.5 586.5 379.4 585.5 382 584.9 384.4 584.4 386.3 584.5 387.9 585.3 389.5 586.1 390.5 587.4 390.9 589.2 391.2 590.4 391.1 591.4 390.6 592.4 390.2 593.3 389.4 594.1 388.3 594.7 389.8 594.7 391.1 595.1 392.1 595.9 393.1 596.7 393.8 597.9 394.1 599.4 394.6 601.6 394.2 603.6 392.9 605.4 391.6 607.1 389.7 608.3 387.1 608.8 384.5 609.4 382.2 609.2 380.3 608.1 378.4 607 377.2 605.2 376.6 602.7L376.6 602.5 376.6 602.5ZM470.6 147.3C428.9 135.6 384.9 129.3 342.1 129.1 341.7 129.1 341.2 129.1 340.8 129.1 340.5 129.1 340.2 129.1 340 129.1 339.7 129.1 339.4 129.1 339.1 129.1 338.7 129.1 338.3 129.1 337.9 129.1 265.1 129.5 188.6 147.3 126.9 179.4 124.9 193.6 123.3 208.4 122.2 223.9L470.6 147.3 470.6 147.3 470.6 147.3ZM172.3 202.7L165.7 172.7 174.3 170.8C177.6 170 180 169.7 181.4 169.7 182.8 169.7 184 170 185.1 170.5 186.4 171.1 187.5 171.9 188.3 173.1 189.2 174.2 189.8 175.6 190.1 177.1 190.6 179.4 190.5 181.4 189.6 183.1 188.8 184.9 187.4 186.2 185.3 187.1L196.1 197.4 186.9 199.5 177.4 189.2 180 201 172.3 202.7 172.3 202.7ZM176.5 185.2L178 184.8C179.8 184.4 181 183.9 181.7 183.1 182.4 182.3 182.6 181.3 182.3 180 182 178.5 181.3 177.5 180.4 177 179.5 176.6 178.2 176.5 176.4 176.9L174.8 177.3 176.5 185.2 176.5 185.2ZM192.5 166.8L200.6 165 203.8 179.6C204.3 181.7 204.7 183.3 205 184.2 205.3 185.1 205.7 185.8 206.1 186.4 206.6 187.1 207.2 187.6 208.1 187.8 209 188 210 188 211.1 187.8 212.2 187.5 213.1 187.1 213.8 186.5 214.5 186 214.9 185.3 215.1 184.4 215.2 183.7 215.2 182.9 215.1 182 215 181 214.7 179.4 214.2 177.3L213.8 175.2 211 162.7 219.2 160.9 222.7 176.8C223.4 180.1 223.7 182.5 223.7 184.2 223.6 185.9 223.2 187.3 222.5 188.7 221.8 190.1 220.6 191.3 218.9 192.3 217.3 193.3 215.2 194.1 212.6 194.7 210 195.2 207.8 195.4 205.9 195.2 204 195 202.3 194.4 201 193.4 199.9 192.5 198.9 191.3 198.2 189.8 197.4 188.3 196.7 185.9 196 182.7L195.3 179.5 192.5 166.8 192.5 166.8ZM243.8 175.4L242.5 169.1 258.5 165.5C258.6 165.7 258.6 166 258.7 166.2 258.8 166.5 258.9 166.8 259 167.3 260.1 172.5 259.6 176.8 257.5 180.2 255.4 183.7 251.9 185.9 246.9 187 244.5 187.6 242.3 187.7 240.2 187.4 238.2 187 236.2 186.3 234.4 185.1 232.7 184 231.2 182.5 230 180.8 228.7 179 227.9 177 227.4 174.9 226.9 172.6 226.9 170.5 227.2 168.4 227.6 166.4 228.3 164.4 229.5 162.6 230.7 160.8 232.2 159.3 234 158.1 235.8 156.9 237.8 156.1 240 155.6 243 155 245.7 155 248.2 155.6 250.7 156.3 253 157.6 255.1 159.6L248.7 164.5C247.6 163.6 246.5 162.9 245.3 162.6 244.1 162.2 242.9 162.2 241.5 162.5 239.1 163 237.3 164.3 236.3 166.2 235.3 168.2 235 170.6 235.7 173.4 236.3 176.2 237.5 178.3 239.3 179.7 241 181 243.1 181.4 245.6 180.9 247.7 180.4 249.3 179.5 250.4 178.2 251.6 176.9 252.1 175.3 252 173.6L243.8 175.4 243.8 175.4ZM267.4 181.8L260.8 151.8 269 150C272.4 149.2 274.8 148.8 276.2 148.7 277.6 148.6 278.8 148.8 279.9 149.1 281.2 149.5 282.2 150.1 283 151 283.8 151.9 284.3 153 284.6 154.4 285 156.1 284.9 157.5 284.2 158.7 283.6 159.9 282.4 161 280.6 161.9 282.8 161.6 284.6 162 286.1 163.1 287.6 164.2 288.6 165.8 289.1 168 289.4 169.6 289.4 171.1 289 172.5 288.6 173.8 287.8 175 286.7 175.9 285.8 176.7 284.6 177.4 283.2 177.9 281.7 178.5 279.3 179.2 275.9 179.9L267.4 181.8 267.4 181.8ZM273.6 174L276.5 173.4C278.4 172.9 279.8 172.4 280.5 171.7 281.2 171.1 281.4 170.2 281.1 169 280.9 167.8 280.3 167 279.4 166.6 278.6 166.3 277.2 166.3 275.2 166.8L272.2 167.4 273.6 174 273.6 174ZM301.2 174.3L298.2 160.6 284.1 146.6 293.5 144.6 299.2 151.4C299.3 151.4 299.3 151.5 299.4 151.6 300 152.3 300.5 153 300.8 153.7 300.8 153 300.9 152.2 301.2 151.3 301.2 151.1 301.3 151 301.3 151L303.6 142.4 313 140.3 306.1 158.9 309.1 172.6 301.2 174.3 301.2 174.3ZM271 162.1L272.7 161.7C274.7 161.3 276 160.8 276.7 160.1 277.3 159.5 277.5 158.7 277.3 157.6 277 156.5 276.5 155.7 275.7 155.4 274.9 155.1 273.5 155.2 271.4 155.7L269.7 156 271 162.1 271 162.1ZM362.5 199.3L362.5 199.3 305.1 211.9 282.8 246.7 248 224.4 190.9 237 260.5 281.5 216 351.1 273.1 338.5 295.3 303.8 330.1 326 354.3 320.7 366.9 377.8 500.5 168.9 443.4 181.5 398.8 251.2 386.3 194 362.5 199.3 362.5 199.3ZM336.5 239.6L317.6 268.9 347 287.6 336.5 239.6ZM184 477.7L273.1 338.5 330.2 326 241.2 465.1 355.3 440 378 543.4 320.9 556 308.5 499.5 194.3 524.6 184 477.7ZM411.4 308.1L468.5 295.6 481 352.6 436.5 422.2 449 479.3 392 491.9 379.4 434.7 423.9 365.2 411.4 308.1ZM493.6 409.7L506.1 466.8 449 479.3 493.6 409.7Z"/></g></svg>