<svg xmlns="http://www.w3.org/2000/svg" width="1285" height="374" viewBox="0 0 1285 374" version="1.1"><g stroke="none" stroke-width="1" fill="none" fill-rule="evenodd"><g transform="translate(3.000000, 3.000000)"><path d="M0 104.1L299.7 45 185 191.1 0 104.1Z" fill="#CDD600"/><path d="M42 82.1L341.7 23 227 169.1 42 82.1Z" fill="#747476"/><path d="M81.2 59.5L380.9 0.4 266.2 146.5 81.2 59.5Z" fill="#CDD600"/></g><path d="M1276 294L147 294 147 291.5 147 167 152 167 152 289 1278.5 289 1281 289 1281 367 1276 367 1276 294Z" fill="#CDD600"/><g transform="translate(313.000000, 116.000000)" fill="#747476"><path d="M964.1 105.3C952 125.5 929.8 139 904.5 139 866.1 139 835 107.9 835 69.5 835 31.1 866.1 0 904.5 0 929.5 0 951.4 13.2 963.7 33L949.4 42.3C940.2 27.1 923.5 17 904.5 17 875.5 17 852 40.5 852 69.5 852 98.5 875.5 122 904.5 122 923.8 122 940.7 111.6 949.8 96L964.1 105.3 964.1 105.3Z"/><path d="M719 116L820.9 116 820.9 134 701 134 701 125 701 46.9 701 33 820.9 33 820.9 51 719 51 719 116 719 116ZM701 4L820.9 4 820.9 22 701 22 701 4 701 4Z"/><path d="M629 22L684 22 684 4 555 4 555 22 610 22 610 134 629 134 629 22 629 22Z"/><path d="M532.1 79L502.4 22 449 133 429 133 491 4 502 4 513 4 624 217 604 217 541.5 97 483 97 483 79 532.1 79 532.1 79Z"/><path d="M325.4 116L310 116 310 51 325.4 51 373 51 373 51C373.5 51 374 51 374.5 51 392.4 51 407 65.6 407 83.5 407 101.4 392.4 116 374.5 116 374 116 373.5 116 373 116L373 116 325.4 116 325.4 116 325.4 116ZM364.8 33L292 33 292 46.9 292 125 292 134 376 134 376 134C403.2 133.2 425 110.9 425 83.5 425 65.1 415.2 49 400.5 40.2 404.5 36.4 407 31 407 25 407 13.4 397.6 4 386 4 385.9 4 385.9 4 385.8 4L292 4 292 22 364.1 22 383 22 383 22C385.8 22.3 388 24.6 388 27.5 388 30.4 385.8 32.7 383 33L383 33 364.8 33 364.8 33 364.8 33Z"/><path d="M205.5 139C243.9 139 275 107.9 275 69.5 275 31.1 243.9 0 205.5 0 167.1 0 136 31.1 136 69.5 136 107.9 167.1 139 205.5 139L205.5 139ZM205.5 122C234.5 122 258 98.5 258 69.5 258 40.5 234.5 17 205.5 17 176.5 17 153 40.5 153 69.5 153 98.5 176.5 122 205.5 122L205.5 122Z"/><path d="M129.1 105.3C117 125.5 94.8 139 69.5 139 31.1 139 0 107.9 0 69.5 0 31.1 31.1 0 69.5 0 94.5 0 116.4 13.2 128.7 33L114.4 42.3C105.2 27.1 88.5 17 69.5 17 40.5 17 17 40.5 17 69.5 17 98.5 40.5 122 69.5 122 88.8 122 105.7 111.6 114.8 96L129.1 105.3 129.1 105.3Z"/></g><path d="M951 366.9L951 322.1 956.7 322.1 956.7 366.9 951 366.9ZM964.6 366.9L964.6 322.1 970.3 322.1 970.3 361.6 983 361.6 983 366.9 964.6 366.9ZM986.2 366.9L986.2 322.1 1005.1 322.1 1005.1 327.1 991.7 327.1 991.7 341.3 1004.2 341.3 1004.2 346 991.7 346 991.7 361.8 1005.7 361.8 1005.7 366.9 986.2 366.9ZM1052.2 344.6C1052.2 351.8 1050.7 357.4 1047.7 361.2 1044.8 365 1040.7 366.9 1035.3 366.9L1025.1 366.9 1025.1 322.1 1035.4 322.1C1040.7 322.1 1044.8 324 1047.8 327.8 1050.7 331.7 1052.2 337.3 1052.2 344.6L1052.2 344.6ZM1046.5 344.6C1046.5 341.6 1046.2 339 1045.6 336.8 1045.1 334.6 1044.3 332.8 1043.3 331.4 1042.3 330 1041.1 328.9 1039.7 328.2 1038.4 327.4 1036.9 327.1 1035.3 327.1L1030.7 327.1 1030.7 361.9 1035.3 361.9C1036.9 361.9 1038.4 361.6 1039.7 360.8 1041.1 360.1 1042.3 359 1043.3 357.6 1044.3 356.2 1045.1 354.4 1045.6 352.2 1046.2 350 1046.5 347.5 1046.5 344.6L1046.5 344.6ZM1058.1 366.9L1058.1 322.1 1077 322.1 1077 327.1 1063.6 327.1 1063.6 341.3 1076.1 341.3 1076.1 346 1063.6 346 1063.6 361.8 1077.6 361.8 1077.6 366.9 1058.1 366.9ZM1102.6 327.3L1102.6 341.7 1114.8 341.7 1114.8 346.7 1102.6 346.7 1102.6 366.9 1096.9 366.9 1096.9 322.1 1115.8 322.1 1115.8 327.3 1102.6 327.3ZM1139 366.9L1131.4 346.9 1126.2 346.9 1126.2 366.9 1120.6 366.9 1120.6 322.1 1132.2 322.1C1133.8 322.1 1135.4 322.3 1136.9 322.7 1138.3 323.2 1139.6 323.9 1140.7 324.9 1141.8 325.8 1142.7 327.1 1143.3 328.7 1143.9 330.2 1144.2 332.1 1144.2 334.3 1144.2 336.1 1144 337.7 1143.5 339.1 1143.1 340.4 1142.5 341.6 1141.7 342.5 1141 343.5 1140.2 344.2 1139.3 344.8 1138.4 345.3 1137.5 345.7 1136.7 345.8L1145.1 366.9 1139 366.9ZM1138.6 334.6C1138.6 333 1138.4 331.8 1138 330.8 1137.5 329.8 1137 329.1 1136.3 328.5 1135.6 327.9 1134.9 327.5 1134 327.2 1133.1 327 1132.2 326.9 1131.3 326.9L1126.2 326.9 1126.2 342.5 1131.4 342.5C1133.6 342.5 1135.3 341.8 1136.6 340.4 1137.9 339 1138.6 337.1 1138.6 334.6L1138.6 334.6ZM1169.2 366.9L1166.7 356.4 1153.7 356.4 1151.1 366.9 1145.4 366.9 1156.6 322.1 1164.2 322.1 1175.2 366.9 1169.2 366.9ZM1160.4 327.4L1160.2 327.4 1154.5 351.9 1165.9 351.9 1160.4 327.4ZM1198.4 366.9L1184.1 332.1 1183.9 332.1 1183.9 366.9 1178.7 366.9 1178.7 322.1 1185.5 322.1 1199.6 356.9 1199.8 356.9 1199.8 322.1 1205.1 322.1 1205.1 366.9 1198.4 366.9ZM1236.8 362.1C1235.6 363.9 1234.2 365.3 1232.4 366.4 1230.6 367.5 1228.5 368 1226 368 1223.5 368 1221.2 367.4 1219.2 366.2 1217.3 365 1215.6 363.4 1214.2 361.3 1212.9 359.2 1211.8 356.7 1211.1 353.8 1210.4 351 1210.1 347.9 1210.1 344.5 1210.1 341.1 1210.4 338 1211.2 335.1 1211.9 332.3 1213 329.8 1214.3 327.7 1215.7 325.6 1217.4 324 1219.3 322.8 1221.3 321.6 1223.5 321 1226 321 1228.2 321 1230.3 321.4 1232.2 322.3 1234.1 323.2 1235.7 324.6 1236.9 326.4L1233.4 330.2C1232.4 328.9 1231.4 327.9 1230.1 327.2 1228.9 326.6 1227.6 326.3 1226.2 326.3 1224.5 326.3 1223 326.7 1221.7 327.7 1220.4 328.7 1219.4 330 1218.6 331.6 1217.7 333.3 1217.1 335.2 1216.7 337.4 1216.3 339.7 1216.1 342 1216.1 344.5 1216.1 347 1216.3 349.3 1216.7 351.5 1217.1 353.7 1217.8 355.7 1218.6 357.3 1219.4 359 1220.5 360.3 1221.8 361.3 1223.1 362.3 1224.6 362.7 1226.3 362.7 1227.9 362.7 1229.3 362.3 1230.5 361.5 1231.7 360.6 1232.6 359.6 1233.4 358.4L1236.8 362.1ZM1240.8 366.9L1240.8 322.1 1259.7 322.1 1259.7 327.1 1246.3 327.1 1246.3 341.3 1258.8 341.3 1258.8 346 1246.3 346 1246.3 361.8 1260.3 361.8 1260.3 366.9 1240.8 366.9Z" fill="#747476"/></g></svg>