<svg xmlns:svg="http://www.w3.org/2000/svg" xmlns="http://www.w3.org/2000/svg" version="1.1" width="279.3" height="56" viewBox="-0.3 -0.3 279.3 56" enable-background="new -0.294 -0.317 146 29" xml:space="preserve"><path d="M90.7 5.9C87.7 4.7 84.6 3.8 81.8 3.8c-4.1 0-6.1 0.9-6.1 2.5 0 4.6 18.2 0.9 18.2 10.8 0 4.1-3.7 7.2-11.2 7.2-4.4 0-7.9-0.9-11.9-3.2l1.6-3.7c3.5 2 6.8 2.9 10.3 2.9 4.4 0 6.8-1.3 6.8-3.3 0-5.1-18.2-1.3-18.2-10.5 0-4 3.7-6.7 10.4-6.7 4 0 7.4 0.9 10.6 2.6l-1.7 3.5M111 24.5c-7.3 0-13.3-5-13.3-12.4 0-7.3 6-12.4 13.3-12.4 7.3 0 13.3 5.1 13.3 12.4 0 7.4-5.9 12.4-13.3 12.4m0-20.8c-5.3 0-8.9 3.7-8.9 8.4 0 4.8 3.5 8.4 8.9 8.4 5.4 0 8.9-3.6 8.9-8.4 0-4.7-3.4-8.4-8.9-8.4M141.6 24.5c-7.7 0-13.4-5-13.4-12.4 0-7.3 5.9-12.4 13.4-12.4 4.5 0 7.7 1.3 10.6 3.5l-2.3 3.4c-2.1-1.7-4.7-2.9-8.3-2.9-5.6 0-9 3.6-9 8.3 0 4.8 3.5 8.3 9.1 8.3 3.5 0 6.3-1.2 8.4-2.8l2.3 3.4c-2.9 2.2-6.3 3.4-10.8 3.4M157.1 0.4l4.2 0 0 23.4-4.2 0zM167.6 23.8l0-23.4 20.8 0 0 3.9-16.6 0 0 5.7 12.9 0 0 3.9-12.9 0 0 6.1 17.3 0 0 3.9-21.5 0M204.9 4.3l0 19.6-4.2 0 0-19.6-9.3 0 0-3.8 22.9 0 0 3.8-9.3 0M217.7 23.8l0-23.4 20.8 0 0 3.9-16.6 0 0 5.7 12.9 0 0 3.9-12.9 0 0 6.1 17.3 0 0 3.9-21.5 0M83.8 51.6c2.3 0 4.7-0.5 6.5-1.4v-6.8h4.1v9.1c-2.9 2-6.9 3.2-10.8 3.2-7.6 0-13.4-5-13.4-12.4 0-7.3 5.8-12.4 13.4-12.4 4.4 0 7.7 1.3 10.6 3.5l-2.3 3.4c-2.1-1.7-4.8-2.8-8.3-2.8-5.6-0.1-9 3.6-9 8.2 0 4.8 3.5 8.3 9.1 8.3M100 55l0-23.4 20.8 0 0 3.9-16.6 0 0 5.7 12.9 0 0 3.9-12.9 0 0 6.1 17.3 0 0 3.9-21.5 0M129.9 55h-4.1V31.6h4.3l14.9 17.7 0.1 0c-0.3-4.4-0.3-8-0.3-11.5v-6.1h4.1v23.4h-4.3l-14.8-17.6-0.1 0c0.2 3.5 0.2 9.5 0.2 11.5v6.1M154.9 55l0-23.4 20.8 0 0 3.9-16.6 0 0 5.7 12.9 0 0 3.9-12.9 0 0 6.1 17.3 0 0 3.9-21.5 0M192 46.4h-6.8v8.6h-4.2V31.6h14.7c4.9 0 7.9 3.1 7.9 7.5 0 4.2-3 6.7-6.6 7.2l6.8 8.7h-5.3l-6.5-8.6m3.2-3.9c2.6 0 4.1-1.4 4.1-3.4 0-2.2-1.3-3.6-3.7-3.6h-10.4v7h10zM212.4 49.3l-2.6 5.7h-4.6l11.1-23.4h4.5l11.1 23.4h-4.6l-2.6-5.7h-12.3m1.8-3.8h8.8l-4.4-9.5-4.4 9.5zM235.1 55l0-23.4 4.2 0 0 19.6 15.3 0 0 3.9-19.5 0M257.4 55l0-23.4 20.8 0 0 3.9-16.6 0 0 5.7 12.9 0 0 3.9-12.9 0 0 6.1 17.3 0 0 3.9-21.6 0" fill="#000"/><path d="m-0.3-0.3 54.6 0 0 28.6-54.6 0z" fill="#ed1a3a"/><path d="m-0.3 27.7 54.6 0 0 28-54.6 0z" fill="#000"/><path d="m9.2 27.7 35.5 0" style="fill:none;stroke-width:1.7;stroke:#fff"/></svg>